<?xml version="1.0" encoding="utf-8"?>
<!-- Generator: Adobe Illustrator 24.1.2, SVG Export Plug-In . SVG Version: 6.00 Build 0)  -->
<svg version="1.1" id="Capa_1" xmlns="http://www.w3.org/2000/svg" xmlns:xlink="http://www.w3.org/1999/xlink" x="0px" y="0px"
	 viewBox="0 0 18 18" style="enable-background:new 0 0 18 18;" xml:space="preserve">
<style type="text/css">
	.st0{fill:#3A824D;}
</style>
<path class="st0" d="M17,1h1c0-0.3-0.1-0.5-0.3-0.7C17.5,0.1,17.3,0,17,0V1z M16,13c0,0.3,0.1,0.5,0.3,0.7c0.2,0.2,0.4,0.3,0.7,0.3
	c0.3,0,0.5-0.1,0.7-0.3S18,13.3,18,13H16z M5,0C4.7,0,4.5,0.1,4.3,0.3C4.1,0.5,4,0.7,4,1c0,0.3,0.1,0.5,0.3,0.7C4.5,1.9,4.7,2,5,2V0
	z M0.3,16.3c-0.1,0.1-0.2,0.2-0.2,0.3S0,16.9,0,17c0,0.1,0,0.3,0.1,0.4c0.1,0.1,0.1,0.2,0.2,0.3c0.1,0.1,0.2,0.2,0.3,0.2
	C0.7,18,0.9,18,1,18c0.1,0,0.3,0,0.4-0.1c0.1-0.1,0.2-0.1,0.3-0.2L0.3,16.3z M16,1v12h2V1H16z M17,0H5v2h12V0z M16.3,0.3l-16,16
	l1.4,1.4l16-16L16.3,0.3z"/>
</svg>
