<svg width="12" height="15" viewBox="0 0 12 15" fill="none" xmlns="http://www.w3.org/2000/svg"><path d="M11.3333 14.6667H0.666656V13.3334C0.666656 12.4493 1.01785 11.6015 1.64297 10.9763C2.26809 10.3512 3.11593 10 3.99999 10H7.99999C8.88404 10 9.73189 10.3512 10.357 10.9763C10.9821 11.6015 11.3333 12.4493 11.3333 13.3334V14.6667ZM5.99999 8.66669C5.4747 8.66669 4.95456 8.56322 4.46926 8.36221C3.98395 8.16119 3.543 7.86655 3.17156 7.49511C2.80013 7.12368 2.50549 6.68272 2.30447 6.19742C2.10345 5.71212 1.99999 5.19197 1.99999 4.66669C1.99999 4.1414 2.10345 3.62126 2.30447 3.13595C2.50549 2.65065 2.80013 2.20969 3.17156 1.83826C3.543 1.46683 3.98395 1.17219 4.46926 0.971169C4.95456 0.77015 5.4747 0.666687 5.99999 0.666687C7.06086 0.666687 8.07827 1.08811 8.82842 1.83826C9.57856 2.58841 9.99999 3.60582 9.99999 4.66669C9.99999 5.72755 9.57856 6.74497 8.82842 7.49511C8.07827 8.24526 7.06086 8.66669 5.99999 8.66669Z" fill="#09201B"/></svg>